<svg width="60" height="60" viewBox="0 0 60 60" fill="none" xmlns="http://www.w3.org/2000/svg">
<path d="M30 0C35.9334 7.07556e-08 41.7336 1.75947 46.6671 5.05591C51.6006 8.35235 55.4458 13.0377 57.7164 18.5195C59.987 24.0013 60.5811 30.0333 59.4236 35.8527C58.266 41.6721 55.4088 47.0176 51.2132 51.2132C47.0176 55.4088 41.6721 58.266 35.8527 59.4236C30.0333 60.5811 24.0013 59.987 18.5195 57.7164C13.0377 55.4458 8.35235 51.6006 5.05591 46.6671C1.75947 41.7336 -1.41511e-07 35.9334 0 30L10.3942 30C10.3942 33.8777 11.5441 37.6682 13.6984 40.8924C15.8527 44.1165 18.9147 46.6295 22.4972 48.1134C26.0797 49.5973 30.0217 49.9855 33.8249 49.2291C37.628 48.4726 41.1215 46.6053 43.8634 43.8634C46.6053 41.1215 48.4726 37.628 49.2291 33.8249C49.9855 30.0217 49.5973 26.0797 48.1134 22.4972C46.6295 18.9147 44.1165 15.8527 40.8924 13.6984C37.6682 11.5441 33.8777 10.3942 30 10.3942L30 0Z" fill="#0E7C86"/>
</svg>
